<svg xmlns="http://www.w3.org/2000/svg" width="100mm" height="100mm" viewBox="0 0 100 100">
<path style="fill:#ffffff; stroke:none;" d="M0 0L0 100L100 100L100 0L0 0z"></path>
<path style="fill:#000000; stroke:none;" d="M10 10L10 90L90 90L90 10L10 10z"></path>
<path style="fill:#ffffff; stroke:none;" d="M20 20L20 30L30 30L30 20L20 20M60 20L60 30L40 30L40 40L30 40L30 70L20 70L20 80L70 80L70 70L80 70L80 60L70 60L70 50L60 50L60 30L70 30L70 40L80 40L80 20L60 20z"></path>
<path style="fill:#000000; stroke:none;" d="M40 40L40 50L50 50L50 60L40 60L40 70L50 70L50 60L60 60L60 50L50 50L50 40L40 40z"></path>
</svg>