<svg xmlns="http://www.w3.org/2000/svg" width="100mm" height="100mm" viewBox="0 0 100 100">
<path style="fill:#ffffff; stroke:none;" d="M0 0L0 100L100 100L100 0L0 0z"></path>
<path style="fill:#000000; stroke:none;" d="M10 10L10 90L90 90L90 10L10 10z"></path>
<path style="fill:#ffffff; stroke:none;" d="M30 20L30 30L20 30L20 60L30 60L30 50L40 50L40 40L50 40L50 60L40 60L40 80L50 80L50 70L70 70L70 80L80 80L80 60L60 60L60 40L50 40L50 30L40 30L40 20L30 20M60 20L60 30L70 30L70 40L80 40L80 20L60 20z"></path>
<path style="fill:#000000; stroke:none;" d="M30 30L30 40L40 40L40 30L30 30z"></path>
<path style="fill:#ffffff; stroke:none;" d="M20 70L20 80L30 80L30 70L20 70z"></path>
</svg>