<svg xmlns="http://www.w3.org/2000/svg" width="100mm" height="100mm" viewBox="0 0 100 100">
<path style="fill:#ffffff; stroke:none;" d="M0 0L0 100L100 100L100 0L0 0z"></path>
<path style="fill:#000000; stroke:none;" d="M10 10L10 90L90 90L90 10L10 10z"></path>
<path style="fill:#ffffff; stroke:none;" d="M30 20L30 30L20 30L20 50L30 50L30 40L40 40L40 50L60 50L60 60L70 60L70 70L30 70L30 60L20 60L20 70L30 70L30 80L80 80L80 40L70 40L70 50L60 50L60 30L50 30L50 40L40 40L40 20L30 20M70 20L70 30L80 30L80 20L70 20z"></path>
</svg>