<svg xmlns="http://www.w3.org/2000/svg" width="100mm" height="100mm" viewBox="0 0 100 100">
<path style="fill:#ffffff; stroke:none;" d="M0 0L0 100L100 100L100 0L0 0z"></path>
<path style="fill:#000000; stroke:none;" d="M10 10L10 90L90 90L90 10L10 10z"></path>
<path style="fill:#ffffff; stroke:none;" d="M30 20L30 50L20 50L20 60L30 60L30 70L20 70L20 80L50 80L50 70L60 70L60 50L70 50L70 60L80 60L80 30L70 30L70 20L50 20L50 30L40 30L40 20L30 20z"></path>
<path style="fill:#000000; stroke:none;" d="M50 30L50 40L70 40L70 30L50 30M40 50L40 70L50 70L50 50L40 50z"></path>
</svg>