<svg xmlns="http://www.w3.org/2000/svg" width="100mm" height="100mm" viewBox="0 0 100 100">
<path style="fill:#ffffff; stroke:none;" d="M0 0L0 100L100 100L100 0L0 0z"></path>
<path style="fill:#000000; stroke:none;" d="M10 10L10 90L90 90L90 10L10 10z"></path>
<path style="fill:#ffffff; stroke:none;" d="M30 20L30 30L20 30L20 40L30 40L30 60L20 60L20 80L30 80L30 60L40 60L40 50L50 50L50 70L40 70L40 80L70 80L70 60L60 60L60 50L50 50L50 40L60 40L60 20L50 20L50 40L30 40L30 30L40 30L40 20L30 20z"></path>
</svg>