<svg xmlns="http://www.w3.org/2000/svg" width="100mm" height="100mm" viewBox="0 0 100 100">
<path style="fill:#ffffff; stroke:none;" d="M0 0L0 100L100 100L100 0L0 0z"></path>
<path style="fill:#000000; stroke:none;" d="M10 10L10 90L90 90L90 10L10 10z"></path>
<path style="fill:#ffffff; stroke:none;" d="M40 20L40 30L20 30L20 70L30 70L30 80L40 80L40 60L30 60L30 40L50 40L50 50L60 50L60 70L50 70L50 80L60 80L60 70L70 70L70 80L80 80L80 60L70 60L70 50L80 50L80 20L40 20z"></path>
<path style="fill:#000000; stroke:none;" d="M60 40L60 50L70 50L70 40L60 40z"></path>
</svg>