<svg xmlns="http://www.w3.org/2000/svg" width="100mm" height="100mm" viewBox="0 0 100 100">
<path style="fill:#ffffff; stroke:none;" d="M0 0L0 100L100 100L100 0L0 0z"></path>
<path style="fill:#000000; stroke:none;" d="M10 10L10 90L90 90L90 10L10 10z"></path>
<path style="fill:#ffffff; stroke:none;" d="M20 20L20 40L40 40L40 30L30 30L30 20L20 20M50 20L50 30L60 30L60 40L50 40L50 50L40 50L40 70L30 70L30 80L40 80L40 70L50 70L50 80L80 80L80 60L60 60L60 50L80 50L80 40L70 40L70 30L80 30L80 20L50 20z"></path>
<path style="fill:#000000; stroke:none;" d="M50 60L50 70L60 70L60 60L50 60z"></path>
</svg>