<svg xmlns="http://www.w3.org/2000/svg" width="100mm" height="100mm" viewBox="0 0 100 100">
<path style="fill:#ffffff; stroke:none;" d="M0 0L0 100L100 100L100 0L0 0z"></path>
<path style="fill:#000000; stroke:none;" d="M10 10L10 90L90 90L90 10L10 10z"></path>
<path style="fill:#ffffff; stroke:none;" d="M30 20L30 30L20 30L20 40L30 40L30 50L20 50L20 60L30 60L30 50L40 50L40 40L60 40L60 50L50 50L50 60L40 60L40 70L30 70L30 80L40 80L40 70L50 70L50 60L80 60L80 50L70 50L70 20L60 20L60 30L50 30L50 20L30 20M70 70L70 80L80 80L80 70L70 70z"></path>
</svg>