<svg xmlns="http://www.w3.org/2000/svg" width="100mm" height="100mm" viewBox="0 0 100 100">
<path style="fill:#ffffff; stroke:none;" d="M0 0L0 100L100 100L100 0L0 0z"></path>
<path style="fill:#000000; stroke:none;" d="M10 10L10 90L90 90L90 10L10 10z"></path>
<path style="fill:#ffffff; stroke:none;" d="M30 20L30 30L20 30L20 40L40 40L40 50L30 50L30 60L40 60L40 70L30 70L30 80L50 80L50 60L40 60L40 50L50 50L50 30L40 30L40 20L30 20M60 30L60 40L70 40L70 50L60 50L60 80L70 80L70 60L80 60L80 40L70 40L70 30L60 30z"></path>
</svg>