<svg xmlns="http://www.w3.org/2000/svg" width="100mm" height="100mm" viewBox="0 0 100 100">
<path style="fill:#ffffff; stroke:none;" d="M0 0L0 100L100 100L100 0L0 0z"></path>
<path style="fill:#000000; stroke:none;" d="M10 10L10 90L90 90L90 10L10 10z"></path>
<path style="fill:#ffffff; stroke:none;" d="M30 20L30 30L20 30L20 40L30 40L30 30L60 30L60 40L50 40L50 50L30 50L30 60L20 60L20 80L30 80L30 70L40 70L40 80L50 80L50 50L60 50L60 40L70 40L70 50L80 50L80 20L30 20M60 60L60 80L70 80L70 70L80 70L80 60L60 60z"></path>
</svg>