<svg xmlns="http://www.w3.org/2000/svg" width="100mm" height="100mm" viewBox="0 0 100 100">
<path style="fill:#ffffff; stroke:none;" d="M0 0L0 100L100 100L100 0L0 0z"></path>
<path style="fill:#000000; stroke:none;" d="M10 10L10 90L90 90L90 10L10 10z"></path>
<path style="fill:#ffffff; stroke:none;" d="M30 20L30 30L50 30L50 20L30 20M60 20L60 40L40 40L40 50L30 50L30 40L20 40L20 70L40 70L40 80L60 80L60 70L40 70L40 50L50 50L50 60L70 60L70 70L80 70L80 60L70 60L70 40L80 40L80 30L70 30L70 20L60 20z"></path>
</svg>